<svg width="200" height="200" viewBox="0 0 200 200" xmlns="http://www.w3.org/2000/svg">
  <rect width="200" height="200" rx="15" fill="#f3f4f6" stroke="#e5e7eb" stroke-width="2"/>
  <path d="M 30,50 L 30,30 L 50,30" stroke="#4f46e5" stroke-width="4" fill="none" stroke-linecap="round"/>
  <path d="M 150,30 L 170,30 L 170,50" stroke="#4f46e5" stroke-width="4" fill="none" stroke-linecap="round"/>
  <path d="M 30,150 L 30,170 L 50,170" stroke="#4f46e5" stroke-width="4" fill="none" stroke-linecap="round"/>
  <path d="M 150,170 L 170,170 L 170,150" stroke="#4f46e5" stroke-width="4" fill="none" stroke-linecap="round"/>
  <text x="100" y="90" font-family="'Outfit', sans-serif" font-size="14" font-weight="bold" fill="#374151" text-anchor="middle">Andheri QR Code</text>
  <text x="100" y="115" font-family="'Outfit', sans-serif" font-size="11" fill="#6b7280" text-anchor="middle">Placeholder Image</text>
  <text x="100" y="135" font-family="'Outfit', sans-serif" font-size="9" fill="#9ca3af" text-anchor="middle">Replace with real QR code</text>
  <rect x="85" y="45" width="30" height="30" rx="4" fill="#4f46e5"/>
  <path d="M 91,51 h 5 v 5 h -5 z M 99,51 h 5 v 5 h -5 z M 91,59 h 5 v 5 h -5 z M 99,59 h 5 v 5 h -5 z" fill="white"/>
</svg>
